<svg height="512" viewBox="0 0 57 60" width="512" xmlns="http://www.w3.org/2000/svg"><g id="Page-1" fill="none" fill-rule="evenodd"><g id="028---Image-Filters" fill-rule="nonzero"><g id="color" transform="translate(1 1)"><path id="Shape" d="m52 8v22.06c-1.0857605-1.6451496-2.4375296-3.0983015-4-4.3v-17.76c0-2.209139-1.790861-4-4-4h-36c-2.209139 0-4 1.790861-4 4v28c0 2.209139 1.790861 4 4 4h11c0 9.9411255 8.0588745 18 18 18h-29c-4.418278 0-8-3.581722-8-8v-42c0-4.418278 3.581722-8 8-8h36c4.418278 0 8 3.581722 8 8z" fill="#f5f5f5"/><path id="Shape" d="m44 0h-3c4.418278 0 8 3.581722 8 8v18.6c1.1457712 1.0183984 2.1542287 2.1814861 3 3.46v-22.06c0-4.418278-3.581722-8-8-8z" fill="#cfd8dc"/><path id="Shape" d="m19 40h-3c0 9.9411255 8.0588745 18 18 18h3c-9.9411255 0-18-8.0588745-18-18z" fill="#cfd8dc"/><path id="Shape" d="m48 8v14l-11.79-11.79c-.1877666-.1893127-.4433625-.29579832-.71-.29579832s-.5222334.10648562-.71.29579832l-12.61 12.61-2.47 2.47c-.1877666.1893127-.4433625.2957983-.71.2957983s-.5222334-.1064856-.71-.2957983l-2.08-2.08c-.1877666-.1893127-.4433625-.2957983-.71-.2957983s-.5222334.1064856-.71.2957983l-10.79 10.79v-26c0-2.209139 1.790861-4 4-4h36c2.209139 0 4 1.790861 4 4z" fill="#02a9f4"/><path id="Shape" d="m44 4h-3c2.209139 0 4 1.790861 4 4v11l3 3v-14c0-2.209139-1.790861-4-4-4z" fill="#0377bc"/><path id="Shape" d="m48 22v3.76c-6.6649893-5.1466872-16.0074621-4.984679-22.49.39-.21.17-.41.35-.61.53-3.7641277 3.4042023-5.9082569 8.2448466-5.9 13.32h-11c-2.209139 0-4-1.790861-4-4v-2l10.79-10.79c.1877666-.1893127.4433625-.2957983.71-.2957983s.5222334.1064856.71.2957983l2.08 2.08c.1877666.1893127.4433625.2957983.71.2957983s.5222334-.1064856.71-.2957983l2.47-2.47 12.61-12.61c.1877666-.1893127.4433625-.29579832.71-.29579832s.5222334.10648562.71.29579832z" fill="#a4c400"/><path id="Shape" d="m34 22c-4.1981541-.0068666-8.2651622 1.4620702-11.49 4.15-.21.17-.41.35-.61.53-3.7641277 3.4042023-5.9082569 8.2448466-5.9000238 13.32h3.0000238c-.0082569-5.0751534 2.1358723-9.9157977 5.9-13.32.2-.18.4-.36.61-.53 2.8313643-2.3611346 6.3250216-3.7865468 10-4.08-.51-.07-.99-.07-1.51-.07z" fill="#90ac00"/><path id="Shape" d="m36.21 10.21c-.1877666-.1893127-.4433625-.29579832-.71-.29579832s-.5222334.10648562-.71.29579832l-.79.79 11 11v1.89c1.058466.5242308 2.0632306 1.1505341 3 1.87v-3.76z" fill="#90ac00"/><path id="Shape" d="m55 40c.0028842 8.2553202-5.6102249 15.4543897-13.6170768 17.4645245-8.0068519 2.0101349-16.3547213-1.6840053-20.2514464-8.9617696-3.8967252-7.2777643-2.3432984-16.2733444 3.7685232-21.8227549.2-.18.4-.36.61-.53 5.3694298-4.4526686 12.8280353-5.4022192 19.1418402-2.4369362 6.3138048 2.965283 10.3459585 9.3114771 10.3481598 16.2869362z" fill="#e91e63"/><path id="Shape" d="m52 30.06c-3.3326691-5.0313741-8.9649852-8.0578053-15-8.06-.49 0-1 0-1.46.07 9.2663382.8485511 16.3585449 8.6198905 16.3585449 17.925s-7.0922067 17.0764489-16.3585449 17.925c.4850654.0505281.9723179.0772269 1.46.08 6.6275346-.0024096 12.7176119-3.6465997 15.8524943-9.4858406 3.1348823-5.8392408 2.8073783-12.9288039-.8524943-18.4541594z" fill="#ad1457"/><g fill="#ffeb3a"><circle id="Oval" cx="13" cy="13" r="4"/><circle id="Oval" cx="28" cy="44" r="3"/><circle id="Oval" cx="46" cy="44" r="3"/><circle id="Oval" cx="37" cy="36" r="3"/></g></g><g id="outline" fill="#000"><path id="Shape" d="m54 9c0-4.97056275-4.0294373-9-9-9h-36c-4.97056275 0-9 4.02943725-9 9v42c0 4.9705627 4.02943725 9 9 9h29c6.932405-.008609 13.3098749-3.7921949 16.6402611-9.8722312 3.3303861-6.0800362 3.0850026-13.4913406-.6402611-19.3377688zm-45 49c-3.86599325 0-7-3.1340068-7-7v-42c0-3.86599325 3.13400675-7 7-7h36c3.8659932 0 7 3.13400675 7 7v19.2c-.6168689-.6868491-1.2854953-1.3253874-2-1.91v-17.29c0-2.76142375-2.2385763-5-5-5h-36c-2.76142375 0-5 2.23857625-5 5v28c0 2.7614237 2.23857625 5 5 5h10.05c.2037025 4.0250913 1.689412 7.8795264 4.24 11h-4.29c-.5522847 0-1 .4477153-1 1s.4477153 1 1 1h6.2c1.3105564 1.1977398 2.7813089 2.2074097 4.37 3zm10.05-18h-10.05c-1.65685425 0-3-1.3431458-3-3v-1.59l10.5-10.5 2.09 2.09c.7800749.7754472 2.0399251.7754472 2.82 0l15.09-15.09 11.5 11.5v1.46c-5.6981973-3.5517377-12.8504423-3.8229335-18.801238-.7128976-5.9507958 3.1100359-9.8115219 9.1368882-10.148762 15.8428976zm28.95-19.41-10.09-10.09c-.7800749-.77544719-2.0399251-.77544719-2.82 0l-15.09 15.09-2.09-2.09c-.7800749-.7754472-2.0399251-.7754472-2.82 0l-9.09 9.09v-23.59c0-1.65685425 1.34314575-3 3-3h36c1.6568542 0 3 1.34314575 3 3zm-10 37.41c-9.3888407 0-17-7.6111593-17-17s7.6111593-17 17-17 17 7.6111593 17 17-7.6111593 17-17 17z"/><path id="Shape" d="m13 53h-3c-.55228475 0-1 .4477153-1 1s.44771525 1 1 1h3c.5522847 0 1-.4477153 1-1s-.4477153-1-1-1z"/><path id="Shape" d="m14 9c-2.7614237 0-5 2.2385763-5 5s2.2385763 5 5 5 5-2.2385763 5-5c0-1.3260824-.5267842-2.597852-1.4644661-3.5355339s-2.2094515-1.4644661-3.5355339-1.4644661zm0 8c-1.6568542 0-3-1.3431458-3-3s1.3431458-3 3-3 3 1.3431458 3 3-1.3431458 3-3 3z"/><path id="Shape" d="m30 41.14v-9.14c0-.5522847-.4477153-1-1-1s-1 .4477153-1 1v9.14c-1.7419603.4733978-2.9510005 2.0548597-2.9510005 3.86s1.2090402 3.3866022 2.9510005 3.86v1.14c0 .5522847.4477153 1 1 1s1-.4477153 1-1v-1.14c1.7419603-.4733978 2.9510005-2.0548597 2.9510005-3.86s-1.2090402-3.3866022-2.9510005-3.86zm-1 5.86c-1.1045695 0-2-.8954305-2-2s.8954305-2 2-2 2 .8954305 2 2-.8954305 2-2 2z"/><path id="Shape" d="m48 41.14v-9.14c0-.5522847-.4477153-1-1-1s-1 .4477153-1 1v9.14c-1.7419603.4733978-2.9510005 2.0548597-2.9510005 3.86s1.2090402 3.3866022 2.9510005 3.86v1.14c0 .5522847.4477153 1 1 1s1-.4477153 1-1v-1.14c1.7419603-.4733978 2.9510005-2.0548597 2.9510005-3.86s-1.2090402-3.3866022-2.9510005-3.86zm-1 5.86c-1.1045695 0-2-.8954305-2-2s.8954305-2 2-2 2 .8954305 2 2-.8954305 2-2 2z"/><path id="Shape" d="m39 33.14v-1.14c0-.5522847-.4477153-1-1-1s-1 .4477153-1 1v1.14c-1.7419603.4733978-2.9510005 2.0548597-2.9510005 3.86s1.2090402 3.3866022 2.9510005 3.86v9.14c0 .5522847.4477153 1 1 1s1-.4477153 1-1v-9.14c1.7419603-.4733978 2.9510005-2.0548597 2.9510005-3.86s-1.2090402-3.3866022-2.9510005-3.86zm-1 5.86c-1.1045695 0-2-.8954305-2-2s.8954305-2 2-2 2 .8954305 2 2-.8954305 2-2 2z"/></g></g></g></svg>